M48
;DRILL file {KiCad 4.0.1-3.201512161002+6197~38~ubuntu14.04.1-stable} date pet 18 dec 2015 18:38:35 CET
;FORMAT={-:-/ absolute / metric / decimal}
FMAT,2
METRIC,TZ
T1C0.400
T2C0.813
T3C0.900
T4C1.016
T5C3.048
%
G90
G05
M71
T1
X96.6Y-85.3
X97.5Y-79.4
X98.079Y-78.833
X100.1Y-81.1
X102.5Y-90.6
X102.55Y-96.25
X102.6Y-106.8
X103.257Y-112.925
X103.3Y-81.
X103.337Y-109.85
X105.588Y-104.6
X105.969Y-101.212
X106.607Y-98.509
X109.9Y-88.6
X110.7Y-94.2
X110.832Y-94.989
X110.875Y-100.737
X111.014Y-81.28
X112.1Y-102.6
X113.03Y-84.804
X113.4Y-100.4
X113.5Y-70.7
X113.975Y-97.125
X115.157Y-93.343
X115.6Y-81.5
X116.1Y-97.5
X116.3Y-91.
X116.325Y-101.55
X117.1Y-91.
X117.4Y-97.5
X118.838Y-100.533
X120.7Y-100.3
X120.9Y-99.175
X121.325Y-97.9
X121.854Y-99.3
X125.225Y-99.9
X125.325Y-101.85
X125.4Y-97.15
X128.1Y-119.4
X129.1Y-76.8
X129.35Y-74.35
X130.2Y-83.1
X137.1Y-79.9
X139.55Y-98.875
X140.5Y-95.025
X140.503Y-97.5
X140.835Y-95.963
X141.3Y-96.9
X142.95Y-106.275
T2
X94.488Y-87.884
X94.488Y-95.504
X99.568Y-87.884
X99.568Y-95.504
X137.835Y-108.24
X137.835Y-115.86
X142.915Y-108.24
X142.915Y-115.86
T3
X95.676Y-69.718
X100.076Y-69.718
T4
X94.935Y-99.915
X94.935Y-102.455
X94.935Y-104.995
X94.935Y-107.535
X94.935Y-110.075
X94.935Y-112.615
X94.935Y-115.155
X94.935Y-117.695
X94.935Y-120.235
X94.935Y-122.775
X97.475Y-99.915
X97.475Y-102.455
X97.475Y-104.995
X97.475Y-107.535
X97.475Y-110.075
X97.475Y-112.615
X97.475Y-115.155
X97.475Y-117.695
X97.475Y-120.235
X97.475Y-122.775
X113.538Y-72.212
X116.078Y-72.212
T5
X85.Y-70.
X85.Y-122.
X147.Y-70.
X147.Y-122.
T0
M30
