G04 #@! TF.FileFunction,Legend,Top*
%FSLAX46Y46*%
G04 Gerber Fmt 4.6, Leading zero omitted, Abs format (unit mm)*
G04 Created by KiCad (PCBNEW 4.0.1-3.201512161002+6197~38~ubuntu14.04.1-stable) date pet 18 dec 2015 18:38:33 CET*
%MOMM*%
G01*
G04 APERTURE LIST*
%ADD10C,0.100000*%
%ADD11C,0.150000*%
%ADD12C,0.127000*%
%ADD13C,0.250000*%
%ADD14C,0.254000*%
%ADD15C,0.076200*%
%ADD16C,0.304800*%
G04 APERTURE END LIST*
D10*
D11*
X135625000Y-95135000D02*
X135625000Y-96135000D01*
X137325000Y-96135000D02*
X137325000Y-95135000D01*
X149286000Y-70000000D02*
G75*
G03X149286000Y-70000000I-2286000J0D01*
G01*
X149286000Y-122000000D02*
G75*
G03X149286000Y-122000000I-2286000J0D01*
G01*
X87286000Y-122000000D02*
G75*
G03X87286000Y-122000000I-2286000J0D01*
G01*
X100084000Y-84416000D02*
X101084000Y-84416000D01*
X101084000Y-82716000D02*
X100084000Y-82716000D01*
X94780000Y-84430000D02*
X95780000Y-84430000D01*
X95780000Y-82730000D02*
X94780000Y-82730000D01*
X98544000Y-74842000D02*
X97544000Y-74842000D01*
X97544000Y-76542000D02*
X98544000Y-76542000D01*
X127900000Y-106650000D02*
X126900000Y-106650000D01*
X126900000Y-108350000D02*
X127900000Y-108350000D01*
X132250000Y-104000000D02*
X132250000Y-103000000D01*
X130550000Y-103000000D02*
X130550000Y-104000000D01*
X128550000Y-104000000D02*
X128550000Y-103000000D01*
X126850000Y-103000000D02*
X126850000Y-104000000D01*
X130425000Y-97575000D02*
X130425000Y-98575000D01*
X132125000Y-98575000D02*
X132125000Y-97575000D01*
X126850000Y-97550000D02*
X126850000Y-98550000D01*
X128550000Y-98550000D02*
X128550000Y-97550000D01*
X130050000Y-89300000D02*
X129050000Y-89300000D01*
X129050000Y-91000000D02*
X130050000Y-91000000D01*
X113175000Y-87775000D02*
X112175000Y-87775000D01*
X112175000Y-89475000D02*
X113175000Y-89475000D01*
X108975000Y-100475000D02*
X108975000Y-99475000D01*
X107275000Y-99475000D02*
X107275000Y-100475000D01*
X107320000Y-118500000D02*
X107320000Y-117500000D01*
X105620000Y-117500000D02*
X105620000Y-118500000D01*
X110650000Y-118420000D02*
X110650000Y-117420000D01*
X108950000Y-117420000D02*
X108950000Y-118420000D01*
X121850000Y-118600000D02*
X121850000Y-117600000D01*
X120150000Y-117600000D02*
X120150000Y-118600000D01*
X126350000Y-118600000D02*
X126350000Y-117600000D01*
X124650000Y-117600000D02*
X124650000Y-118600000D01*
X104052000Y-81796000D02*
X104052000Y-82796000D01*
X105752000Y-82796000D02*
X105752000Y-81796000D01*
X113880000Y-82796000D02*
X113880000Y-81796000D01*
X112180000Y-81796000D02*
X112180000Y-82796000D01*
X107600000Y-105450000D02*
X108600000Y-105450000D01*
X108600000Y-103750000D02*
X107600000Y-103750000D01*
X141085000Y-100935000D02*
X140085000Y-100935000D01*
X140085000Y-102635000D02*
X141085000Y-102635000D01*
X140015000Y-90435000D02*
X141015000Y-90435000D01*
X141015000Y-88735000D02*
X140015000Y-88735000D01*
X141185000Y-97975000D02*
X141285000Y-97975000D01*
X141285000Y-97975000D02*
X141885000Y-97975000D01*
X141885000Y-97975000D02*
X141885000Y-93275000D01*
X141885000Y-93275000D02*
X141185000Y-93275000D01*
X141185000Y-93275000D02*
X141185000Y-97975000D01*
X117660000Y-79892000D02*
X117660000Y-84242000D01*
X117660000Y-84242000D02*
X118560000Y-84242000D01*
X118560000Y-84242000D02*
X118560000Y-79892000D01*
X118560000Y-79892000D02*
X117660000Y-79892000D01*
X101034000Y-81614000D02*
X101034000Y-78814000D01*
X101034000Y-78814000D02*
X99634000Y-78814000D01*
X99634000Y-78814000D02*
X99634000Y-81614000D01*
X99634000Y-81614000D02*
X101034000Y-81614000D01*
X96120000Y-81714000D02*
X96120000Y-78914000D01*
X96120000Y-78914000D02*
X94520000Y-78914000D01*
X94520000Y-78914000D02*
X94520000Y-81714000D01*
X94520000Y-81714000D02*
X96120000Y-81714000D01*
D12*
X95476000Y-65018000D02*
G75*
G03X95226000Y-65268000I0J-250000D01*
G01*
X96126000Y-65268000D02*
G75*
G03X95876000Y-65018000I-250000J0D01*
G01*
X99876000Y-65018000D02*
G75*
G03X99626000Y-65268000I0J-250000D01*
G01*
X100526000Y-65268000D02*
G75*
G03X100276000Y-65018000I-250000J0D01*
G01*
X94926000Y-72268000D02*
X94026000Y-72268000D01*
X99376000Y-72268000D02*
X96376000Y-72268000D01*
X100826000Y-72268000D02*
X101726000Y-72268000D01*
D13*
X96176000Y-64968000D02*
X95176000Y-64968000D01*
X100576000Y-64968000D02*
X99576000Y-64968000D01*
X95176000Y-65468000D02*
X95176000Y-67968000D01*
X96176000Y-67968000D02*
X96176000Y-65468000D01*
X95176000Y-64718000D02*
X95176000Y-65468000D01*
X96176000Y-64718000D02*
X95176000Y-64718000D01*
X96176000Y-65468000D02*
X96176000Y-64718000D01*
X100576000Y-65468000D02*
X100576000Y-64718000D01*
X100576000Y-64718000D02*
X99576000Y-64718000D01*
X99576000Y-64718000D02*
X99576000Y-65468000D01*
X100576000Y-67968000D02*
X100576000Y-65468000D01*
X99576000Y-65468000D02*
X99576000Y-67968000D01*
X98626000Y-68218000D02*
X99076000Y-64718000D01*
X97126000Y-68218000D02*
X96676000Y-64718000D01*
X98326000Y-68518000D02*
X97426000Y-68518000D01*
X97126000Y-68218000D02*
G75*
G03X97426000Y-68518000I300000J0D01*
G01*
X98326000Y-68518000D02*
G75*
G03X98626000Y-68218000I0J300000D01*
G01*
D12*
X95326000Y-70618000D02*
X95326000Y-71768000D01*
X95976000Y-70618000D02*
X95326000Y-70618000D01*
X95976000Y-70618000D02*
X95976000Y-71768000D01*
X100426000Y-70618000D02*
X100426000Y-71768000D01*
X100426000Y-70618000D02*
X99776000Y-70618000D01*
X99776000Y-70618000D02*
X99776000Y-71768000D01*
X96076000Y-72568000D02*
X96076000Y-73018000D01*
X95226000Y-72568000D02*
X95226000Y-73018000D01*
X95226000Y-72568000D02*
G75*
G03X94926000Y-72268000I-300000J0D01*
G01*
X96376000Y-72268000D02*
G75*
G03X96076000Y-72568000I0J-300000D01*
G01*
X99676000Y-72568000D02*
X99676000Y-73018000D01*
X100526000Y-72568000D02*
X100526000Y-73018000D01*
X99676000Y-72568000D02*
G75*
G03X99376000Y-72268000I-300000J0D01*
G01*
X100826000Y-72268000D02*
G75*
G03X100526000Y-72568000I0J-300000D01*
G01*
X95226000Y-72668000D02*
X94226000Y-72668000D01*
X99676000Y-72668000D02*
X96076000Y-72668000D01*
X101526000Y-72668000D02*
X100526000Y-72668000D01*
X93526000Y-72018000D02*
X93476000Y-72018000D01*
X94026000Y-72018000D02*
X93876000Y-72018000D01*
X93476000Y-72518000D02*
X93526000Y-72518000D01*
X94026000Y-72518000D02*
X94026000Y-72268000D01*
X101876000Y-71518000D02*
X101726000Y-71518000D01*
X102826000Y-71518000D02*
X102226000Y-71518000D01*
X102226000Y-72018000D02*
X102276000Y-72018000D01*
X101876000Y-72018000D02*
X101726000Y-72018000D01*
X102276000Y-72518000D02*
X102226000Y-72518000D01*
X101726000Y-72518000D02*
X101726000Y-72268000D01*
X101526000Y-73018000D02*
X94226000Y-73018000D01*
X94226000Y-72668000D02*
G75*
G02X93876000Y-72318000I0J350000D01*
G01*
X94226000Y-73018000D02*
G75*
G02X93526000Y-72318000I0J700000D01*
G01*
X93876000Y-70968000D02*
X93876000Y-72318000D01*
X93676000Y-70618000D02*
X93876000Y-70968000D01*
X93626000Y-70618000D02*
X93676000Y-70618000D01*
X93526000Y-70618000D02*
X93626000Y-70618000D01*
X93526000Y-72318000D02*
X93526000Y-70618000D01*
X102226000Y-72318000D02*
X102226000Y-70618000D01*
X102226000Y-70618000D02*
X102126000Y-70618000D01*
X102126000Y-70618000D02*
X102076000Y-70618000D01*
X102076000Y-70618000D02*
X101876000Y-70968000D01*
X101876000Y-70968000D02*
X101876000Y-72318000D01*
X101526000Y-73018000D02*
G75*
G03X102226000Y-72318000I0J700000D01*
G01*
X101526000Y-72668000D02*
G75*
G03X101876000Y-72318000I0J350000D01*
G01*
X93476000Y-66518000D02*
G75*
G03X93226000Y-66768000I0J-250000D01*
G01*
X93226000Y-66768000D02*
G75*
G03X93476000Y-67018000I250000J0D01*
G01*
X93476000Y-66518000D02*
X94026000Y-66518000D01*
X93476000Y-67018000D02*
X94026000Y-67018000D01*
X93476000Y-72018000D02*
G75*
G03X93226000Y-72268000I0J-250000D01*
G01*
X93226000Y-72268000D02*
G75*
G03X93476000Y-72518000I250000J0D01*
G01*
X102276000Y-66518000D02*
X101726000Y-66518000D01*
X102276000Y-67018000D02*
X101726000Y-67018000D01*
X102526000Y-66768000D02*
G75*
G03X102276000Y-66518000I-250000J0D01*
G01*
X102276000Y-67018000D02*
G75*
G03X102526000Y-66768000I0J250000D01*
G01*
X102526000Y-72268000D02*
G75*
G03X102276000Y-72018000I-250000J0D01*
G01*
X102276000Y-72518000D02*
G75*
G03X102526000Y-72268000I0J250000D01*
G01*
X101726000Y-73018000D02*
X102826000Y-73018000D01*
X102826000Y-73018000D02*
X102826000Y-71518000D01*
X94026000Y-71518000D02*
X92926000Y-71518000D01*
X92926000Y-71518000D02*
X92926000Y-73018000D01*
X92926000Y-73018000D02*
X94026000Y-73018000D01*
X94026000Y-66018000D02*
X92926000Y-66018000D01*
X92926000Y-66018000D02*
X92926000Y-67518000D01*
X92926000Y-67518000D02*
X94026000Y-67518000D01*
X101726000Y-66018000D02*
X102826000Y-66018000D01*
X102826000Y-66018000D02*
X102826000Y-67518000D01*
X102826000Y-67518000D02*
X101726000Y-67518000D01*
X101726000Y-63818000D02*
X101726000Y-72268000D01*
X94026000Y-72268000D02*
X94026000Y-63818000D01*
X101726000Y-63818000D02*
X94026000Y-63818000D01*
X101276000Y-64468000D02*
X100876000Y-64468000D01*
X100476000Y-64468000D02*
X100076000Y-64468000D01*
X99676000Y-64468000D02*
X99276000Y-64468000D01*
X98876000Y-64468000D02*
X98476000Y-64468000D01*
X94876000Y-64468000D02*
X94476000Y-64468000D01*
X95676000Y-64468000D02*
X95276000Y-64468000D01*
X96476000Y-64468000D02*
X96076000Y-64468000D01*
X97276000Y-64468000D02*
X96876000Y-64468000D01*
X98076000Y-64468000D02*
X97676000Y-64468000D01*
D11*
X93665000Y-124045000D02*
X93665000Y-98645000D01*
X98745000Y-101185000D02*
X98745000Y-124045000D01*
X93665000Y-124045000D02*
X98745000Y-124045000D01*
X93665000Y-98645000D02*
X96205000Y-98645000D01*
X99025000Y-99915000D02*
X99025000Y-98365000D01*
X96205000Y-98645000D02*
X96205000Y-101185000D01*
X96205000Y-101185000D02*
X98745000Y-101185000D01*
X99025000Y-98365000D02*
X97475000Y-98365000D01*
D14*
X117094000Y-74422000D02*
X112522000Y-74422000D01*
X112522000Y-74930000D02*
X117094000Y-74930000D01*
X112522000Y-74422000D02*
X112522000Y-75311000D01*
X117094000Y-74422000D02*
X117094000Y-75311000D01*
X115570000Y-68961000D02*
X117348000Y-68961000D01*
X114046000Y-68961000D02*
X112268000Y-68961000D01*
X114300000Y-69215000D02*
X114046000Y-68961000D01*
X115316000Y-69215000D02*
X115570000Y-68961000D01*
X115316000Y-69215000D02*
X114300000Y-69215000D01*
X112268000Y-75311000D02*
X112268000Y-68961000D01*
X117348000Y-68961000D02*
X117348000Y-75311000D01*
X117348000Y-75311000D02*
X112268000Y-75311000D01*
D11*
X105043000Y-71720000D02*
X105043000Y-70520000D01*
X106793000Y-70520000D02*
X106793000Y-71720000D01*
X105025000Y-99400000D02*
X105025000Y-100600000D01*
X103275000Y-100600000D02*
X103275000Y-99400000D01*
X130150000Y-94900000D02*
X128950000Y-94900000D01*
X128950000Y-93150000D02*
X130150000Y-93150000D01*
X132725000Y-112600000D02*
X132725000Y-111400000D01*
X134475000Y-111400000D02*
X134475000Y-112600000D01*
X103625000Y-109250000D02*
X103625000Y-110450000D01*
X101875000Y-110450000D02*
X101875000Y-109250000D01*
X101900000Y-116700000D02*
X101900000Y-115500000D01*
X103650000Y-115500000D02*
X103650000Y-116700000D01*
X101925000Y-122675000D02*
X101925000Y-121475000D01*
X103675000Y-121475000D02*
X103675000Y-122675000D01*
X105980000Y-95355000D02*
X104780000Y-95355000D01*
X104780000Y-93605000D02*
X105980000Y-93605000D01*
X106010000Y-91299000D02*
X104810000Y-91299000D01*
X104810000Y-89549000D02*
X106010000Y-89549000D01*
X112545000Y-110340000D02*
X112545000Y-109140000D01*
X114295000Y-109140000D02*
X114295000Y-110340000D01*
X130575000Y-117500000D02*
X130575000Y-118700000D01*
X128825000Y-118700000D02*
X128825000Y-117500000D01*
X132725000Y-118700000D02*
X132725000Y-117500000D01*
X134475000Y-117500000D02*
X134475000Y-118700000D01*
X119600000Y-108375000D02*
X118400000Y-108375000D01*
X118400000Y-106625000D02*
X119600000Y-106625000D01*
X108036000Y-80080000D02*
X108036000Y-81780000D01*
X108036000Y-81780000D02*
X108536000Y-82380000D01*
X108536000Y-82380000D02*
X109836000Y-82380000D01*
X109836000Y-82380000D02*
X109836000Y-80180000D01*
X109836000Y-80180000D02*
X109836000Y-80080000D01*
X109836000Y-80080000D02*
X108036000Y-80080000D01*
X99568000Y-91694000D02*
G75*
G03X99568000Y-91694000I-2540000J0D01*
G01*
X100838000Y-87884000D02*
X100838000Y-95504000D01*
X100838000Y-95504000D02*
X93218000Y-95504000D01*
X93218000Y-95504000D02*
X93218000Y-87884000D01*
X100838000Y-87884000D02*
X93218000Y-87884000D01*
X117650380Y-114499360D02*
X129349620Y-114499360D01*
X129349620Y-109500640D02*
X117650380Y-109500640D01*
X129349620Y-114499360D02*
X129349620Y-113651000D01*
X129349620Y-109500640D02*
X129349620Y-110349000D01*
X117650380Y-114499360D02*
X117650380Y-113651000D01*
X117650380Y-109500640D02*
X117650380Y-110349000D01*
X87286000Y-70000000D02*
G75*
G03X87286000Y-70000000I-2286000J0D01*
G01*
X128134000Y-71390000D02*
X128084000Y-83740000D01*
X128084000Y-83740000D02*
X137934000Y-83740000D01*
X137934000Y-83740000D02*
X137884000Y-71540000D01*
X137884000Y-71540000D02*
X128134000Y-71540000D01*
X142915000Y-112050000D02*
G75*
G03X142915000Y-112050000I-2540000J0D01*
G01*
X136565000Y-115860000D02*
X136565000Y-108240000D01*
X136565000Y-108240000D02*
X144185000Y-108240000D01*
X144185000Y-108240000D02*
X144185000Y-115860000D01*
X136565000Y-115860000D02*
X144185000Y-115860000D01*
X116108333Y-97602381D02*
X116108333Y-98411905D01*
X116155952Y-98507143D01*
X116203571Y-98554762D01*
X116298809Y-98602381D01*
X116489286Y-98602381D01*
X116584524Y-98554762D01*
X116632143Y-98507143D01*
X116679762Y-98411905D01*
X116679762Y-97602381D01*
X117727381Y-98507143D02*
X117679762Y-98554762D01*
X117536905Y-98602381D01*
X117441667Y-98602381D01*
X117298809Y-98554762D01*
X117203571Y-98459524D01*
X117155952Y-98364286D01*
X117108333Y-98173810D01*
X117108333Y-98030952D01*
X117155952Y-97840476D01*
X117203571Y-97745238D01*
X117298809Y-97650000D01*
X117441667Y-97602381D01*
X117536905Y-97602381D01*
X117679762Y-97650000D01*
X117727381Y-97697619D01*
X118632143Y-98602381D02*
X118155952Y-98602381D01*
X118155952Y-97602381D01*
X119489286Y-98602381D02*
X118917857Y-98602381D01*
X119203571Y-98602381D02*
X119203571Y-97602381D01*
X119108333Y-97745238D01*
X119013095Y-97840476D01*
X118917857Y-97888095D01*
X135932143Y-92782143D02*
X135884524Y-92829762D01*
X135741667Y-92877381D01*
X135646429Y-92877381D01*
X135503571Y-92829762D01*
X135408333Y-92734524D01*
X135360714Y-92639286D01*
X135313095Y-92448810D01*
X135313095Y-92305952D01*
X135360714Y-92115476D01*
X135408333Y-92020238D01*
X135503571Y-91925000D01*
X135646429Y-91877381D01*
X135741667Y-91877381D01*
X135884524Y-91925000D01*
X135932143Y-91972619D01*
X136313095Y-91972619D02*
X136360714Y-91925000D01*
X136455952Y-91877381D01*
X136694048Y-91877381D01*
X136789286Y-91925000D01*
X136836905Y-91972619D01*
X136884524Y-92067857D01*
X136884524Y-92163095D01*
X136836905Y-92305952D01*
X136265476Y-92877381D01*
X136884524Y-92877381D01*
X137836905Y-92877381D02*
X137265476Y-92877381D01*
X137551190Y-92877381D02*
X137551190Y-91877381D01*
X137455952Y-92020238D01*
X137360714Y-92115476D01*
X137265476Y-92163095D01*
X145666667Y-66404381D02*
X146285715Y-66404381D01*
X145952381Y-66785333D01*
X146095239Y-66785333D01*
X146190477Y-66832952D01*
X146238096Y-66880571D01*
X146285715Y-66975810D01*
X146285715Y-67213905D01*
X146238096Y-67309143D01*
X146190477Y-67356762D01*
X146095239Y-67404381D01*
X145809524Y-67404381D01*
X145714286Y-67356762D01*
X145666667Y-67309143D01*
X146714286Y-67404381D02*
X146714286Y-66404381D01*
X146714286Y-66880571D02*
X147285715Y-66880571D01*
X147285715Y-67404381D02*
X147285715Y-66404381D01*
X147666667Y-66404381D02*
X148285715Y-66404381D01*
X147952381Y-66785333D01*
X148095239Y-66785333D01*
X148190477Y-66832952D01*
X148238096Y-66880571D01*
X148285715Y-66975810D01*
X148285715Y-67213905D01*
X148238096Y-67309143D01*
X148190477Y-67356762D01*
X148095239Y-67404381D01*
X147809524Y-67404381D01*
X147714286Y-67356762D01*
X147666667Y-67309143D01*
X146190477Y-118737714D02*
X146190477Y-119404381D01*
X145952381Y-118356762D02*
X145714286Y-119071048D01*
X146333334Y-119071048D01*
X146714286Y-119404381D02*
X146714286Y-118404381D01*
X146714286Y-118880571D02*
X147285715Y-118880571D01*
X147285715Y-119404381D02*
X147285715Y-118404381D01*
X148190477Y-118737714D02*
X148190477Y-119404381D01*
X147952381Y-118356762D02*
X147714286Y-119071048D01*
X148333334Y-119071048D01*
X83714286Y-118499619D02*
X83761905Y-118452000D01*
X83857143Y-118404381D01*
X84095239Y-118404381D01*
X84190477Y-118452000D01*
X84238096Y-118499619D01*
X84285715Y-118594857D01*
X84285715Y-118690095D01*
X84238096Y-118832952D01*
X83666667Y-119404381D01*
X84285715Y-119404381D01*
X84714286Y-119404381D02*
X84714286Y-118404381D01*
X84714286Y-118880571D02*
X85285715Y-118880571D01*
X85285715Y-119404381D02*
X85285715Y-118404381D01*
X85714286Y-118499619D02*
X85761905Y-118452000D01*
X85857143Y-118404381D01*
X86095239Y-118404381D01*
X86190477Y-118452000D01*
X86238096Y-118499619D01*
X86285715Y-118594857D01*
X86285715Y-118690095D01*
X86238096Y-118832952D01*
X85666667Y-119404381D01*
X86285715Y-119404381D01*
X100417334Y-86023143D02*
X100369715Y-86070762D01*
X100226858Y-86118381D01*
X100131620Y-86118381D01*
X99988762Y-86070762D01*
X99893524Y-85975524D01*
X99845905Y-85880286D01*
X99798286Y-85689810D01*
X99798286Y-85546952D01*
X99845905Y-85356476D01*
X99893524Y-85261238D01*
X99988762Y-85166000D01*
X100131620Y-85118381D01*
X100226858Y-85118381D01*
X100369715Y-85166000D01*
X100417334Y-85213619D01*
X101369715Y-86118381D02*
X100798286Y-86118381D01*
X101084000Y-86118381D02*
X101084000Y-85118381D01*
X100988762Y-85261238D01*
X100893524Y-85356476D01*
X100798286Y-85404095D01*
X95133334Y-85957143D02*
X95085715Y-86004762D01*
X94942858Y-86052381D01*
X94847620Y-86052381D01*
X94704762Y-86004762D01*
X94609524Y-85909524D01*
X94561905Y-85814286D01*
X94514286Y-85623810D01*
X94514286Y-85480952D01*
X94561905Y-85290476D01*
X94609524Y-85195238D01*
X94704762Y-85100000D01*
X94847620Y-85052381D01*
X94942858Y-85052381D01*
X95085715Y-85100000D01*
X95133334Y-85147619D01*
X95514286Y-85147619D02*
X95561905Y-85100000D01*
X95657143Y-85052381D01*
X95895239Y-85052381D01*
X95990477Y-85100000D01*
X96038096Y-85147619D01*
X96085715Y-85242857D01*
X96085715Y-85338095D01*
X96038096Y-85480952D01*
X95466667Y-86052381D01*
X96085715Y-86052381D01*
X101687334Y-76049143D02*
X101639715Y-76096762D01*
X101496858Y-76144381D01*
X101401620Y-76144381D01*
X101258762Y-76096762D01*
X101163524Y-76001524D01*
X101115905Y-75906286D01*
X101068286Y-75715810D01*
X101068286Y-75572952D01*
X101115905Y-75382476D01*
X101163524Y-75287238D01*
X101258762Y-75192000D01*
X101401620Y-75144381D01*
X101496858Y-75144381D01*
X101639715Y-75192000D01*
X101687334Y-75239619D01*
X102020667Y-75144381D02*
X102639715Y-75144381D01*
X102306381Y-75525333D01*
X102449239Y-75525333D01*
X102544477Y-75572952D01*
X102592096Y-75620571D01*
X102639715Y-75715810D01*
X102639715Y-75953905D01*
X102592096Y-76049143D01*
X102544477Y-76096762D01*
X102449239Y-76144381D01*
X102163524Y-76144381D01*
X102068286Y-76096762D01*
X102020667Y-76049143D01*
X130933334Y-107957143D02*
X130885715Y-108004762D01*
X130742858Y-108052381D01*
X130647620Y-108052381D01*
X130504762Y-108004762D01*
X130409524Y-107909524D01*
X130361905Y-107814286D01*
X130314286Y-107623810D01*
X130314286Y-107480952D01*
X130361905Y-107290476D01*
X130409524Y-107195238D01*
X130504762Y-107100000D01*
X130647620Y-107052381D01*
X130742858Y-107052381D01*
X130885715Y-107100000D01*
X130933334Y-107147619D01*
X131790477Y-107385714D02*
X131790477Y-108052381D01*
X131552381Y-107004762D02*
X131314286Y-107719048D01*
X131933334Y-107719048D01*
X133657143Y-103666666D02*
X133704762Y-103714285D01*
X133752381Y-103857142D01*
X133752381Y-103952380D01*
X133704762Y-104095238D01*
X133609524Y-104190476D01*
X133514286Y-104238095D01*
X133323810Y-104285714D01*
X133180952Y-104285714D01*
X132990476Y-104238095D01*
X132895238Y-104190476D01*
X132800000Y-104095238D01*
X132752381Y-103952380D01*
X132752381Y-103857142D01*
X132800000Y-103714285D01*
X132847619Y-103666666D01*
X132752381Y-102761904D02*
X132752381Y-103238095D01*
X133228571Y-103285714D01*
X133180952Y-103238095D01*
X133133333Y-103142857D01*
X133133333Y-102904761D01*
X133180952Y-102809523D01*
X133228571Y-102761904D01*
X133323810Y-102714285D01*
X133561905Y-102714285D01*
X133657143Y-102761904D01*
X133704762Y-102809523D01*
X133752381Y-102904761D01*
X133752381Y-103142857D01*
X133704762Y-103238095D01*
X133657143Y-103285714D01*
X126257143Y-103666666D02*
X126304762Y-103714285D01*
X126352381Y-103857142D01*
X126352381Y-103952380D01*
X126304762Y-104095238D01*
X126209524Y-104190476D01*
X126114286Y-104238095D01*
X125923810Y-104285714D01*
X125780952Y-104285714D01*
X125590476Y-104238095D01*
X125495238Y-104190476D01*
X125400000Y-104095238D01*
X125352381Y-103952380D01*
X125352381Y-103857142D01*
X125400000Y-103714285D01*
X125447619Y-103666666D01*
X125352381Y-102809523D02*
X125352381Y-103000000D01*
X125400000Y-103095238D01*
X125447619Y-103142857D01*
X125590476Y-103238095D01*
X125780952Y-103285714D01*
X126161905Y-103285714D01*
X126257143Y-103238095D01*
X126304762Y-103190476D01*
X126352381Y-103095238D01*
X126352381Y-102904761D01*
X126304762Y-102809523D01*
X126257143Y-102761904D01*
X126161905Y-102714285D01*
X125923810Y-102714285D01*
X125828571Y-102761904D01*
X125780952Y-102809523D01*
X125733333Y-102904761D01*
X125733333Y-103095238D01*
X125780952Y-103190476D01*
X125828571Y-103238095D01*
X125923810Y-103285714D01*
X133732143Y-98391666D02*
X133779762Y-98439285D01*
X133827381Y-98582142D01*
X133827381Y-98677380D01*
X133779762Y-98820238D01*
X133684524Y-98915476D01*
X133589286Y-98963095D01*
X133398810Y-99010714D01*
X133255952Y-99010714D01*
X133065476Y-98963095D01*
X132970238Y-98915476D01*
X132875000Y-98820238D01*
X132827381Y-98677380D01*
X132827381Y-98582142D01*
X132875000Y-98439285D01*
X132922619Y-98391666D01*
X132827381Y-98058333D02*
X132827381Y-97391666D01*
X133827381Y-97820238D01*
X129857143Y-98316666D02*
X129904762Y-98364285D01*
X129952381Y-98507142D01*
X129952381Y-98602380D01*
X129904762Y-98745238D01*
X129809524Y-98840476D01*
X129714286Y-98888095D01*
X129523810Y-98935714D01*
X129380952Y-98935714D01*
X129190476Y-98888095D01*
X129095238Y-98840476D01*
X129000000Y-98745238D01*
X128952381Y-98602380D01*
X128952381Y-98507142D01*
X129000000Y-98364285D01*
X129047619Y-98316666D01*
X129380952Y-97745238D02*
X129333333Y-97840476D01*
X129285714Y-97888095D01*
X129190476Y-97935714D01*
X129142857Y-97935714D01*
X129047619Y-97888095D01*
X129000000Y-97840476D01*
X128952381Y-97745238D01*
X128952381Y-97554761D01*
X129000000Y-97459523D01*
X129047619Y-97411904D01*
X129142857Y-97364285D01*
X129190476Y-97364285D01*
X129285714Y-97411904D01*
X129333333Y-97459523D01*
X129380952Y-97554761D01*
X129380952Y-97745238D01*
X129428571Y-97840476D01*
X129476190Y-97888095D01*
X129571429Y-97935714D01*
X129761905Y-97935714D01*
X129857143Y-97888095D01*
X129904762Y-97840476D01*
X129952381Y-97745238D01*
X129952381Y-97554761D01*
X129904762Y-97459523D01*
X129857143Y-97411904D01*
X129761905Y-97364285D01*
X129571429Y-97364285D01*
X129476190Y-97411904D01*
X129428571Y-97459523D01*
X129380952Y-97554761D01*
X129383334Y-88407143D02*
X129335715Y-88454762D01*
X129192858Y-88502381D01*
X129097620Y-88502381D01*
X128954762Y-88454762D01*
X128859524Y-88359524D01*
X128811905Y-88264286D01*
X128764286Y-88073810D01*
X128764286Y-87930952D01*
X128811905Y-87740476D01*
X128859524Y-87645238D01*
X128954762Y-87550000D01*
X129097620Y-87502381D01*
X129192858Y-87502381D01*
X129335715Y-87550000D01*
X129383334Y-87597619D01*
X129859524Y-88502381D02*
X130050000Y-88502381D01*
X130145239Y-88454762D01*
X130192858Y-88407143D01*
X130288096Y-88264286D01*
X130335715Y-88073810D01*
X130335715Y-87692857D01*
X130288096Y-87597619D01*
X130240477Y-87550000D01*
X130145239Y-87502381D01*
X129954762Y-87502381D01*
X129859524Y-87550000D01*
X129811905Y-87597619D01*
X129764286Y-87692857D01*
X129764286Y-87930952D01*
X129811905Y-88026190D01*
X129859524Y-88073810D01*
X129954762Y-88121429D01*
X130145239Y-88121429D01*
X130240477Y-88073810D01*
X130288096Y-88026190D01*
X130335715Y-87930952D01*
X112032143Y-86882143D02*
X111984524Y-86929762D01*
X111841667Y-86977381D01*
X111746429Y-86977381D01*
X111603571Y-86929762D01*
X111508333Y-86834524D01*
X111460714Y-86739286D01*
X111413095Y-86548810D01*
X111413095Y-86405952D01*
X111460714Y-86215476D01*
X111508333Y-86120238D01*
X111603571Y-86025000D01*
X111746429Y-85977381D01*
X111841667Y-85977381D01*
X111984524Y-86025000D01*
X112032143Y-86072619D01*
X112984524Y-86977381D02*
X112413095Y-86977381D01*
X112698809Y-86977381D02*
X112698809Y-85977381D01*
X112603571Y-86120238D01*
X112508333Y-86215476D01*
X112413095Y-86263095D01*
X113603571Y-85977381D02*
X113698810Y-85977381D01*
X113794048Y-86025000D01*
X113841667Y-86072619D01*
X113889286Y-86167857D01*
X113936905Y-86358333D01*
X113936905Y-86596429D01*
X113889286Y-86786905D01*
X113841667Y-86882143D01*
X113794048Y-86929762D01*
X113698810Y-86977381D01*
X113603571Y-86977381D01*
X113508333Y-86929762D01*
X113460714Y-86882143D01*
X113413095Y-86786905D01*
X113365476Y-86596429D01*
X113365476Y-86358333D01*
X113413095Y-86167857D01*
X113460714Y-86072619D01*
X113508333Y-86025000D01*
X113603571Y-85977381D01*
X106507143Y-100642857D02*
X106554762Y-100690476D01*
X106602381Y-100833333D01*
X106602381Y-100928571D01*
X106554762Y-101071429D01*
X106459524Y-101166667D01*
X106364286Y-101214286D01*
X106173810Y-101261905D01*
X106030952Y-101261905D01*
X105840476Y-101214286D01*
X105745238Y-101166667D01*
X105650000Y-101071429D01*
X105602381Y-100928571D01*
X105602381Y-100833333D01*
X105650000Y-100690476D01*
X105697619Y-100642857D01*
X106602381Y-99690476D02*
X106602381Y-100261905D01*
X106602381Y-99976191D02*
X105602381Y-99976191D01*
X105745238Y-100071429D01*
X105840476Y-100166667D01*
X105888095Y-100261905D01*
X106602381Y-98738095D02*
X106602381Y-99309524D01*
X106602381Y-99023810D02*
X105602381Y-99023810D01*
X105745238Y-99119048D01*
X105840476Y-99214286D01*
X105888095Y-99309524D01*
X105587143Y-121807143D02*
X105539524Y-121854762D01*
X105396667Y-121902381D01*
X105301429Y-121902381D01*
X105158571Y-121854762D01*
X105063333Y-121759524D01*
X105015714Y-121664286D01*
X104968095Y-121473810D01*
X104968095Y-121330952D01*
X105015714Y-121140476D01*
X105063333Y-121045238D01*
X105158571Y-120950000D01*
X105301429Y-120902381D01*
X105396667Y-120902381D01*
X105539524Y-120950000D01*
X105587143Y-120997619D01*
X106539524Y-121902381D02*
X105968095Y-121902381D01*
X106253809Y-121902381D02*
X106253809Y-120902381D01*
X106158571Y-121045238D01*
X106063333Y-121140476D01*
X105968095Y-121188095D01*
X106920476Y-120997619D02*
X106968095Y-120950000D01*
X107063333Y-120902381D01*
X107301429Y-120902381D01*
X107396667Y-120950000D01*
X107444286Y-120997619D01*
X107491905Y-121092857D01*
X107491905Y-121188095D01*
X107444286Y-121330952D01*
X106872857Y-121902381D01*
X107491905Y-121902381D01*
X109157143Y-121857143D02*
X109109524Y-121904762D01*
X108966667Y-121952381D01*
X108871429Y-121952381D01*
X108728571Y-121904762D01*
X108633333Y-121809524D01*
X108585714Y-121714286D01*
X108538095Y-121523810D01*
X108538095Y-121380952D01*
X108585714Y-121190476D01*
X108633333Y-121095238D01*
X108728571Y-121000000D01*
X108871429Y-120952381D01*
X108966667Y-120952381D01*
X109109524Y-121000000D01*
X109157143Y-121047619D01*
X110109524Y-121952381D02*
X109538095Y-121952381D01*
X109823809Y-121952381D02*
X109823809Y-120952381D01*
X109728571Y-121095238D01*
X109633333Y-121190476D01*
X109538095Y-121238095D01*
X110442857Y-120952381D02*
X111061905Y-120952381D01*
X110728571Y-121333333D01*
X110871429Y-121333333D01*
X110966667Y-121380952D01*
X111014286Y-121428571D01*
X111061905Y-121523810D01*
X111061905Y-121761905D01*
X111014286Y-121857143D01*
X110966667Y-121904762D01*
X110871429Y-121952381D01*
X110585714Y-121952381D01*
X110490476Y-121904762D01*
X110442857Y-121857143D01*
X119457143Y-118742857D02*
X119504762Y-118790476D01*
X119552381Y-118933333D01*
X119552381Y-119028571D01*
X119504762Y-119171429D01*
X119409524Y-119266667D01*
X119314286Y-119314286D01*
X119123810Y-119361905D01*
X118980952Y-119361905D01*
X118790476Y-119314286D01*
X118695238Y-119266667D01*
X118600000Y-119171429D01*
X118552381Y-119028571D01*
X118552381Y-118933333D01*
X118600000Y-118790476D01*
X118647619Y-118742857D01*
X119552381Y-117790476D02*
X119552381Y-118361905D01*
X119552381Y-118076191D02*
X118552381Y-118076191D01*
X118695238Y-118171429D01*
X118790476Y-118266667D01*
X118838095Y-118361905D01*
X118885714Y-116933333D02*
X119552381Y-116933333D01*
X118504762Y-117171429D02*
X119219048Y-117409524D01*
X119219048Y-116790476D01*
X123757143Y-118742857D02*
X123804762Y-118790476D01*
X123852381Y-118933333D01*
X123852381Y-119028571D01*
X123804762Y-119171429D01*
X123709524Y-119266667D01*
X123614286Y-119314286D01*
X123423810Y-119361905D01*
X123280952Y-119361905D01*
X123090476Y-119314286D01*
X122995238Y-119266667D01*
X122900000Y-119171429D01*
X122852381Y-119028571D01*
X122852381Y-118933333D01*
X122900000Y-118790476D01*
X122947619Y-118742857D01*
X123852381Y-117790476D02*
X123852381Y-118361905D01*
X123852381Y-118076191D02*
X122852381Y-118076191D01*
X122995238Y-118171429D01*
X123090476Y-118266667D01*
X123138095Y-118361905D01*
X122852381Y-116885714D02*
X122852381Y-117361905D01*
X123328571Y-117409524D01*
X123280952Y-117361905D01*
X123233333Y-117266667D01*
X123233333Y-117028571D01*
X123280952Y-116933333D01*
X123328571Y-116885714D01*
X123423810Y-116838095D01*
X123661905Y-116838095D01*
X123757143Y-116885714D01*
X123804762Y-116933333D01*
X123852381Y-117028571D01*
X123852381Y-117266667D01*
X123804762Y-117361905D01*
X123757143Y-117409524D01*
X104259143Y-79351143D02*
X104211524Y-79398762D01*
X104068667Y-79446381D01*
X103973429Y-79446381D01*
X103830571Y-79398762D01*
X103735333Y-79303524D01*
X103687714Y-79208286D01*
X103640095Y-79017810D01*
X103640095Y-78874952D01*
X103687714Y-78684476D01*
X103735333Y-78589238D01*
X103830571Y-78494000D01*
X103973429Y-78446381D01*
X104068667Y-78446381D01*
X104211524Y-78494000D01*
X104259143Y-78541619D01*
X105211524Y-79446381D02*
X104640095Y-79446381D01*
X104925809Y-79446381D02*
X104925809Y-78446381D01*
X104830571Y-78589238D01*
X104735333Y-78684476D01*
X104640095Y-78732095D01*
X106068667Y-78446381D02*
X105878190Y-78446381D01*
X105782952Y-78494000D01*
X105735333Y-78541619D01*
X105640095Y-78684476D01*
X105592476Y-78874952D01*
X105592476Y-79255905D01*
X105640095Y-79351143D01*
X105687714Y-79398762D01*
X105782952Y-79446381D01*
X105973429Y-79446381D01*
X106068667Y-79398762D01*
X106116286Y-79351143D01*
X106163905Y-79255905D01*
X106163905Y-79017810D01*
X106116286Y-78922571D01*
X106068667Y-78874952D01*
X105973429Y-78827333D01*
X105782952Y-78827333D01*
X105687714Y-78874952D01*
X105640095Y-78922571D01*
X105592476Y-79017810D01*
X115487143Y-82938857D02*
X115534762Y-82986476D01*
X115582381Y-83129333D01*
X115582381Y-83224571D01*
X115534762Y-83367429D01*
X115439524Y-83462667D01*
X115344286Y-83510286D01*
X115153810Y-83557905D01*
X115010952Y-83557905D01*
X114820476Y-83510286D01*
X114725238Y-83462667D01*
X114630000Y-83367429D01*
X114582381Y-83224571D01*
X114582381Y-83129333D01*
X114630000Y-82986476D01*
X114677619Y-82938857D01*
X115582381Y-81986476D02*
X115582381Y-82557905D01*
X115582381Y-82272191D02*
X114582381Y-82272191D01*
X114725238Y-82367429D01*
X114820476Y-82462667D01*
X114868095Y-82557905D01*
X114582381Y-81653143D02*
X114582381Y-80986476D01*
X115582381Y-81415048D01*
X103357143Y-104957143D02*
X103309524Y-105004762D01*
X103166667Y-105052381D01*
X103071429Y-105052381D01*
X102928571Y-105004762D01*
X102833333Y-104909524D01*
X102785714Y-104814286D01*
X102738095Y-104623810D01*
X102738095Y-104480952D01*
X102785714Y-104290476D01*
X102833333Y-104195238D01*
X102928571Y-104100000D01*
X103071429Y-104052381D01*
X103166667Y-104052381D01*
X103309524Y-104100000D01*
X103357143Y-104147619D01*
X104309524Y-105052381D02*
X103738095Y-105052381D01*
X104023809Y-105052381D02*
X104023809Y-104052381D01*
X103928571Y-104195238D01*
X103833333Y-104290476D01*
X103738095Y-104338095D01*
X104880952Y-104480952D02*
X104785714Y-104433333D01*
X104738095Y-104385714D01*
X104690476Y-104290476D01*
X104690476Y-104242857D01*
X104738095Y-104147619D01*
X104785714Y-104100000D01*
X104880952Y-104052381D01*
X105071429Y-104052381D01*
X105166667Y-104100000D01*
X105214286Y-104147619D01*
X105261905Y-104242857D01*
X105261905Y-104290476D01*
X105214286Y-104385714D01*
X105166667Y-104433333D01*
X105071429Y-104480952D01*
X104880952Y-104480952D01*
X104785714Y-104528571D01*
X104738095Y-104576190D01*
X104690476Y-104671429D01*
X104690476Y-104861905D01*
X104738095Y-104957143D01*
X104785714Y-105004762D01*
X104880952Y-105052381D01*
X105071429Y-105052381D01*
X105166667Y-105004762D01*
X105214286Y-104957143D01*
X105261905Y-104861905D01*
X105261905Y-104671429D01*
X105214286Y-104576190D01*
X105166667Y-104528571D01*
X105071429Y-104480952D01*
X139932143Y-103982143D02*
X139884524Y-104029762D01*
X139741667Y-104077381D01*
X139646429Y-104077381D01*
X139503571Y-104029762D01*
X139408333Y-103934524D01*
X139360714Y-103839286D01*
X139313095Y-103648810D01*
X139313095Y-103505952D01*
X139360714Y-103315476D01*
X139408333Y-103220238D01*
X139503571Y-103125000D01*
X139646429Y-103077381D01*
X139741667Y-103077381D01*
X139884524Y-103125000D01*
X139932143Y-103172619D01*
X140884524Y-104077381D02*
X140313095Y-104077381D01*
X140598809Y-104077381D02*
X140598809Y-103077381D01*
X140503571Y-103220238D01*
X140408333Y-103315476D01*
X140313095Y-103363095D01*
X141360714Y-104077381D02*
X141551190Y-104077381D01*
X141646429Y-104029762D01*
X141694048Y-103982143D01*
X141789286Y-103839286D01*
X141836905Y-103648810D01*
X141836905Y-103267857D01*
X141789286Y-103172619D01*
X141741667Y-103125000D01*
X141646429Y-103077381D01*
X141455952Y-103077381D01*
X141360714Y-103125000D01*
X141313095Y-103172619D01*
X141265476Y-103267857D01*
X141265476Y-103505952D01*
X141313095Y-103601190D01*
X141360714Y-103648810D01*
X141455952Y-103696429D01*
X141646429Y-103696429D01*
X141741667Y-103648810D01*
X141789286Y-103601190D01*
X141836905Y-103505952D01*
X139832143Y-87882143D02*
X139784524Y-87929762D01*
X139641667Y-87977381D01*
X139546429Y-87977381D01*
X139403571Y-87929762D01*
X139308333Y-87834524D01*
X139260714Y-87739286D01*
X139213095Y-87548810D01*
X139213095Y-87405952D01*
X139260714Y-87215476D01*
X139308333Y-87120238D01*
X139403571Y-87025000D01*
X139546429Y-86977381D01*
X139641667Y-86977381D01*
X139784524Y-87025000D01*
X139832143Y-87072619D01*
X140213095Y-87072619D02*
X140260714Y-87025000D01*
X140355952Y-86977381D01*
X140594048Y-86977381D01*
X140689286Y-87025000D01*
X140736905Y-87072619D01*
X140784524Y-87167857D01*
X140784524Y-87263095D01*
X140736905Y-87405952D01*
X140165476Y-87977381D01*
X140784524Y-87977381D01*
X141403571Y-86977381D02*
X141498810Y-86977381D01*
X141594048Y-87025000D01*
X141641667Y-87072619D01*
X141689286Y-87167857D01*
X141736905Y-87358333D01*
X141736905Y-87596429D01*
X141689286Y-87786905D01*
X141641667Y-87882143D01*
X141594048Y-87929762D01*
X141498810Y-87977381D01*
X141403571Y-87977381D01*
X141308333Y-87929762D01*
X141260714Y-87882143D01*
X141213095Y-87786905D01*
X141165476Y-87596429D01*
X141165476Y-87358333D01*
X141213095Y-87167857D01*
X141260714Y-87072619D01*
X141308333Y-87025000D01*
X141403571Y-86977381D01*
X143587381Y-96217857D02*
X143587381Y-96694048D01*
X142587381Y-96694048D01*
X143539762Y-95932143D02*
X143587381Y-95789286D01*
X143587381Y-95551190D01*
X143539762Y-95455952D01*
X143492143Y-95408333D01*
X143396905Y-95360714D01*
X143301667Y-95360714D01*
X143206429Y-95408333D01*
X143158810Y-95455952D01*
X143111190Y-95551190D01*
X143063571Y-95741667D01*
X143015952Y-95836905D01*
X142968333Y-95884524D01*
X142873095Y-95932143D01*
X142777857Y-95932143D01*
X142682619Y-95884524D01*
X142635000Y-95836905D01*
X142587381Y-95741667D01*
X142587381Y-95503571D01*
X142635000Y-95360714D01*
X143587381Y-94408333D02*
X143587381Y-94979762D01*
X143587381Y-94694048D02*
X142587381Y-94694048D01*
X142730238Y-94789286D01*
X142825476Y-94884524D01*
X142873095Y-94979762D01*
X117300476Y-78938381D02*
X117300476Y-77938381D01*
X117633810Y-78652667D01*
X117967143Y-77938381D01*
X117967143Y-78938381D01*
X118967143Y-78938381D02*
X118395714Y-78938381D01*
X118681428Y-78938381D02*
X118681428Y-77938381D01*
X118586190Y-78081238D01*
X118490952Y-78176476D01*
X118395714Y-78224095D01*
X98869714Y-78176381D02*
X98869714Y-77176381D01*
X99203048Y-77890667D01*
X99536381Y-77176381D01*
X99536381Y-78176381D01*
X99964952Y-77890667D02*
X100441143Y-77890667D01*
X99869714Y-78176381D02*
X100203047Y-77176381D01*
X100536381Y-78176381D01*
X100774476Y-77176381D02*
X101441143Y-78176381D01*
X101441143Y-77176381D02*
X100774476Y-78176381D01*
X102345905Y-78176381D02*
X101774476Y-78176381D01*
X102060190Y-78176381D02*
X102060190Y-77176381D01*
X101964952Y-77319238D01*
X101869714Y-77414476D01*
X101774476Y-77462095D01*
X93405714Y-78266381D02*
X93405714Y-77266381D01*
X93739048Y-77980667D01*
X94072381Y-77266381D01*
X94072381Y-78266381D01*
X94500952Y-77980667D02*
X94977143Y-77980667D01*
X94405714Y-78266381D02*
X94739047Y-77266381D01*
X95072381Y-78266381D01*
X95310476Y-77266381D02*
X95977143Y-78266381D01*
X95977143Y-77266381D02*
X95310476Y-78266381D01*
X96310476Y-77361619D02*
X96358095Y-77314000D01*
X96453333Y-77266381D01*
X96691429Y-77266381D01*
X96786667Y-77314000D01*
X96834286Y-77361619D01*
X96881905Y-77456857D01*
X96881905Y-77552095D01*
X96834286Y-77694952D01*
X96262857Y-78266381D01*
X96881905Y-78266381D01*
D15*
X97276077Y-66367695D02*
X97276077Y-65554895D01*
X97585715Y-65554895D01*
X97663124Y-65593600D01*
X97701829Y-65632305D01*
X97740534Y-65709714D01*
X97740534Y-65825829D01*
X97701829Y-65903238D01*
X97663124Y-65941943D01*
X97585715Y-65980648D01*
X97276077Y-65980648D01*
X98514629Y-66367695D02*
X98050172Y-66367695D01*
X98282401Y-66367695D02*
X98282401Y-65554895D01*
X98204991Y-65671010D01*
X98127582Y-65748419D01*
X98050172Y-65787124D01*
D11*
X95661905Y-97577381D02*
X95661905Y-96577381D01*
X96042858Y-96577381D01*
X96138096Y-96625000D01*
X96185715Y-96672619D01*
X96233334Y-96767857D01*
X96233334Y-96910714D01*
X96185715Y-97005952D01*
X96138096Y-97053571D01*
X96042858Y-97101190D01*
X95661905Y-97101190D01*
X96614286Y-96672619D02*
X96661905Y-96625000D01*
X96757143Y-96577381D01*
X96995239Y-96577381D01*
X97090477Y-96625000D01*
X97138096Y-96672619D01*
X97185715Y-96767857D01*
X97185715Y-96863095D01*
X97138096Y-97005952D01*
X96566667Y-97577381D01*
X97185715Y-97577381D01*
D16*
X113683143Y-77143429D02*
X113683143Y-75619429D01*
X114263715Y-75619429D01*
X114408857Y-75692000D01*
X114481429Y-75764571D01*
X114554000Y-75909714D01*
X114554000Y-76127429D01*
X114481429Y-76272571D01*
X114408857Y-76345143D01*
X114263715Y-76417714D01*
X113683143Y-76417714D01*
X115062000Y-75619429D02*
X116005429Y-75619429D01*
X115497429Y-76200000D01*
X115715143Y-76200000D01*
X115860286Y-76272571D01*
X115932857Y-76345143D01*
X116005429Y-76490286D01*
X116005429Y-76853143D01*
X115932857Y-76998286D01*
X115860286Y-77070857D01*
X115715143Y-77143429D01*
X115279715Y-77143429D01*
X115134572Y-77070857D01*
X115062000Y-76998286D01*
D11*
X108652381Y-71366666D02*
X108176190Y-71700000D01*
X108652381Y-71938095D02*
X107652381Y-71938095D01*
X107652381Y-71557142D01*
X107700000Y-71461904D01*
X107747619Y-71414285D01*
X107842857Y-71366666D01*
X107985714Y-71366666D01*
X108080952Y-71414285D01*
X108128571Y-71461904D01*
X108176190Y-71557142D01*
X108176190Y-71938095D01*
X108652381Y-70414285D02*
X108652381Y-70985714D01*
X108652381Y-70700000D02*
X107652381Y-70700000D01*
X107795238Y-70795238D01*
X107890476Y-70890476D01*
X107938095Y-70985714D01*
X102502381Y-100166666D02*
X102026190Y-100500000D01*
X102502381Y-100738095D02*
X101502381Y-100738095D01*
X101502381Y-100357142D01*
X101550000Y-100261904D01*
X101597619Y-100214285D01*
X101692857Y-100166666D01*
X101835714Y-100166666D01*
X101930952Y-100214285D01*
X101978571Y-100261904D01*
X102026190Y-100357142D01*
X102026190Y-100738095D01*
X101597619Y-99785714D02*
X101550000Y-99738095D01*
X101502381Y-99642857D01*
X101502381Y-99404761D01*
X101550000Y-99309523D01*
X101597619Y-99261904D01*
X101692857Y-99214285D01*
X101788095Y-99214285D01*
X101930952Y-99261904D01*
X102502381Y-99833333D01*
X102502381Y-99214285D01*
X129358334Y-92577381D02*
X129025000Y-92101190D01*
X128786905Y-92577381D02*
X128786905Y-91577381D01*
X129167858Y-91577381D01*
X129263096Y-91625000D01*
X129310715Y-91672619D01*
X129358334Y-91767857D01*
X129358334Y-91910714D01*
X129310715Y-92005952D01*
X129263096Y-92053571D01*
X129167858Y-92101190D01*
X128786905Y-92101190D01*
X129691667Y-91577381D02*
X130310715Y-91577381D01*
X129977381Y-91958333D01*
X130120239Y-91958333D01*
X130215477Y-92005952D01*
X130263096Y-92053571D01*
X130310715Y-92148810D01*
X130310715Y-92386905D01*
X130263096Y-92482143D01*
X130215477Y-92529762D01*
X130120239Y-92577381D01*
X129834524Y-92577381D01*
X129739286Y-92529762D01*
X129691667Y-92482143D01*
X136152381Y-112166666D02*
X135676190Y-112500000D01*
X136152381Y-112738095D02*
X135152381Y-112738095D01*
X135152381Y-112357142D01*
X135200000Y-112261904D01*
X135247619Y-112214285D01*
X135342857Y-112166666D01*
X135485714Y-112166666D01*
X135580952Y-112214285D01*
X135628571Y-112261904D01*
X135676190Y-112357142D01*
X135676190Y-112738095D01*
X135485714Y-111309523D02*
X136152381Y-111309523D01*
X135104762Y-111547619D02*
X135819048Y-111785714D01*
X135819048Y-111166666D01*
X101077381Y-109966666D02*
X100601190Y-110300000D01*
X101077381Y-110538095D02*
X100077381Y-110538095D01*
X100077381Y-110157142D01*
X100125000Y-110061904D01*
X100172619Y-110014285D01*
X100267857Y-109966666D01*
X100410714Y-109966666D01*
X100505952Y-110014285D01*
X100553571Y-110061904D01*
X100601190Y-110157142D01*
X100601190Y-110538095D01*
X100077381Y-109061904D02*
X100077381Y-109538095D01*
X100553571Y-109585714D01*
X100505952Y-109538095D01*
X100458333Y-109442857D01*
X100458333Y-109204761D01*
X100505952Y-109109523D01*
X100553571Y-109061904D01*
X100648810Y-109014285D01*
X100886905Y-109014285D01*
X100982143Y-109061904D01*
X101029762Y-109109523D01*
X101077381Y-109204761D01*
X101077381Y-109442857D01*
X101029762Y-109538095D01*
X100982143Y-109585714D01*
X101052381Y-116216666D02*
X100576190Y-116550000D01*
X101052381Y-116788095D02*
X100052381Y-116788095D01*
X100052381Y-116407142D01*
X100100000Y-116311904D01*
X100147619Y-116264285D01*
X100242857Y-116216666D01*
X100385714Y-116216666D01*
X100480952Y-116264285D01*
X100528571Y-116311904D01*
X100576190Y-116407142D01*
X100576190Y-116788095D01*
X100052381Y-115359523D02*
X100052381Y-115550000D01*
X100100000Y-115645238D01*
X100147619Y-115692857D01*
X100290476Y-115788095D01*
X100480952Y-115835714D01*
X100861905Y-115835714D01*
X100957143Y-115788095D01*
X101004762Y-115740476D01*
X101052381Y-115645238D01*
X101052381Y-115454761D01*
X101004762Y-115359523D01*
X100957143Y-115311904D01*
X100861905Y-115264285D01*
X100623810Y-115264285D01*
X100528571Y-115311904D01*
X100480952Y-115359523D01*
X100433333Y-115454761D01*
X100433333Y-115645238D01*
X100480952Y-115740476D01*
X100528571Y-115788095D01*
X100623810Y-115835714D01*
X101052381Y-122091666D02*
X100576190Y-122425000D01*
X101052381Y-122663095D02*
X100052381Y-122663095D01*
X100052381Y-122282142D01*
X100100000Y-122186904D01*
X100147619Y-122139285D01*
X100242857Y-122091666D01*
X100385714Y-122091666D01*
X100480952Y-122139285D01*
X100528571Y-122186904D01*
X100576190Y-122282142D01*
X100576190Y-122663095D01*
X100052381Y-121758333D02*
X100052381Y-121091666D01*
X101052381Y-121520238D01*
X105233334Y-93052381D02*
X104900000Y-92576190D01*
X104661905Y-93052381D02*
X104661905Y-92052381D01*
X105042858Y-92052381D01*
X105138096Y-92100000D01*
X105185715Y-92147619D01*
X105233334Y-92242857D01*
X105233334Y-92385714D01*
X105185715Y-92480952D01*
X105138096Y-92528571D01*
X105042858Y-92576190D01*
X104661905Y-92576190D01*
X105804762Y-92480952D02*
X105709524Y-92433333D01*
X105661905Y-92385714D01*
X105614286Y-92290476D01*
X105614286Y-92242857D01*
X105661905Y-92147619D01*
X105709524Y-92100000D01*
X105804762Y-92052381D01*
X105995239Y-92052381D01*
X106090477Y-92100000D01*
X106138096Y-92147619D01*
X106185715Y-92242857D01*
X106185715Y-92290476D01*
X106138096Y-92385714D01*
X106090477Y-92433333D01*
X105995239Y-92480952D01*
X105804762Y-92480952D01*
X105709524Y-92528571D01*
X105661905Y-92576190D01*
X105614286Y-92671429D01*
X105614286Y-92861905D01*
X105661905Y-92957143D01*
X105709524Y-93004762D01*
X105804762Y-93052381D01*
X105995239Y-93052381D01*
X106090477Y-93004762D01*
X106138096Y-92957143D01*
X106185715Y-92861905D01*
X106185715Y-92671429D01*
X106138096Y-92576190D01*
X106090477Y-92528571D01*
X105995239Y-92480952D01*
X105233334Y-89052381D02*
X104900000Y-88576190D01*
X104661905Y-89052381D02*
X104661905Y-88052381D01*
X105042858Y-88052381D01*
X105138096Y-88100000D01*
X105185715Y-88147619D01*
X105233334Y-88242857D01*
X105233334Y-88385714D01*
X105185715Y-88480952D01*
X105138096Y-88528571D01*
X105042858Y-88576190D01*
X104661905Y-88576190D01*
X105709524Y-89052381D02*
X105900000Y-89052381D01*
X105995239Y-89004762D01*
X106042858Y-88957143D01*
X106138096Y-88814286D01*
X106185715Y-88623810D01*
X106185715Y-88242857D01*
X106138096Y-88147619D01*
X106090477Y-88100000D01*
X105995239Y-88052381D01*
X105804762Y-88052381D01*
X105709524Y-88100000D01*
X105661905Y-88147619D01*
X105614286Y-88242857D01*
X105614286Y-88480952D01*
X105661905Y-88576190D01*
X105709524Y-88623810D01*
X105804762Y-88671429D01*
X105995239Y-88671429D01*
X106090477Y-88623810D01*
X106138096Y-88576190D01*
X106185715Y-88480952D01*
X112757143Y-113552381D02*
X112423809Y-113076190D01*
X112185714Y-113552381D02*
X112185714Y-112552381D01*
X112566667Y-112552381D01*
X112661905Y-112600000D01*
X112709524Y-112647619D01*
X112757143Y-112742857D01*
X112757143Y-112885714D01*
X112709524Y-112980952D01*
X112661905Y-113028571D01*
X112566667Y-113076190D01*
X112185714Y-113076190D01*
X113709524Y-113552381D02*
X113138095Y-113552381D01*
X113423809Y-113552381D02*
X113423809Y-112552381D01*
X113328571Y-112695238D01*
X113233333Y-112790476D01*
X113138095Y-112838095D01*
X114328571Y-112552381D02*
X114423810Y-112552381D01*
X114519048Y-112600000D01*
X114566667Y-112647619D01*
X114614286Y-112742857D01*
X114661905Y-112933333D01*
X114661905Y-113171429D01*
X114614286Y-113361905D01*
X114566667Y-113457143D01*
X114519048Y-113504762D01*
X114423810Y-113552381D01*
X114328571Y-113552381D01*
X114233333Y-113504762D01*
X114185714Y-113457143D01*
X114138095Y-113361905D01*
X114090476Y-113171429D01*
X114090476Y-112933333D01*
X114138095Y-112742857D01*
X114185714Y-112647619D01*
X114233333Y-112600000D01*
X114328571Y-112552381D01*
X132052381Y-118742857D02*
X131576190Y-119076191D01*
X132052381Y-119314286D02*
X131052381Y-119314286D01*
X131052381Y-118933333D01*
X131100000Y-118838095D01*
X131147619Y-118790476D01*
X131242857Y-118742857D01*
X131385714Y-118742857D01*
X131480952Y-118790476D01*
X131528571Y-118838095D01*
X131576190Y-118933333D01*
X131576190Y-119314286D01*
X132052381Y-117790476D02*
X132052381Y-118361905D01*
X132052381Y-118076191D02*
X131052381Y-118076191D01*
X131195238Y-118171429D01*
X131290476Y-118266667D01*
X131338095Y-118361905D01*
X132052381Y-116838095D02*
X132052381Y-117409524D01*
X132052381Y-117123810D02*
X131052381Y-117123810D01*
X131195238Y-117219048D01*
X131290476Y-117314286D01*
X131338095Y-117409524D01*
X135952381Y-118742857D02*
X135476190Y-119076191D01*
X135952381Y-119314286D02*
X134952381Y-119314286D01*
X134952381Y-118933333D01*
X135000000Y-118838095D01*
X135047619Y-118790476D01*
X135142857Y-118742857D01*
X135285714Y-118742857D01*
X135380952Y-118790476D01*
X135428571Y-118838095D01*
X135476190Y-118933333D01*
X135476190Y-119314286D01*
X135952381Y-117790476D02*
X135952381Y-118361905D01*
X135952381Y-118076191D02*
X134952381Y-118076191D01*
X135095238Y-118171429D01*
X135190476Y-118266667D01*
X135238095Y-118361905D01*
X135047619Y-117409524D02*
X135000000Y-117361905D01*
X134952381Y-117266667D01*
X134952381Y-117028571D01*
X135000000Y-116933333D01*
X135047619Y-116885714D01*
X135142857Y-116838095D01*
X135238095Y-116838095D01*
X135380952Y-116885714D01*
X135952381Y-117457143D01*
X135952381Y-116838095D01*
X122257143Y-107952381D02*
X121923809Y-107476190D01*
X121685714Y-107952381D02*
X121685714Y-106952381D01*
X122066667Y-106952381D01*
X122161905Y-107000000D01*
X122209524Y-107047619D01*
X122257143Y-107142857D01*
X122257143Y-107285714D01*
X122209524Y-107380952D01*
X122161905Y-107428571D01*
X122066667Y-107476190D01*
X121685714Y-107476190D01*
X123209524Y-107952381D02*
X122638095Y-107952381D01*
X122923809Y-107952381D02*
X122923809Y-106952381D01*
X122828571Y-107095238D01*
X122733333Y-107190476D01*
X122638095Y-107238095D01*
X123542857Y-106952381D02*
X124161905Y-106952381D01*
X123828571Y-107333333D01*
X123971429Y-107333333D01*
X124066667Y-107380952D01*
X124114286Y-107428571D01*
X124161905Y-107523810D01*
X124161905Y-107761905D01*
X124114286Y-107857143D01*
X124066667Y-107904762D01*
X123971429Y-107952381D01*
X123685714Y-107952381D01*
X123590476Y-107904762D01*
X123542857Y-107857143D01*
X108204095Y-79144762D02*
X108346952Y-79192381D01*
X108585048Y-79192381D01*
X108680286Y-79144762D01*
X108727905Y-79097143D01*
X108775524Y-79001905D01*
X108775524Y-78906667D01*
X108727905Y-78811429D01*
X108680286Y-78763810D01*
X108585048Y-78716190D01*
X108394571Y-78668571D01*
X108299333Y-78620952D01*
X108251714Y-78573333D01*
X108204095Y-78478095D01*
X108204095Y-78382857D01*
X108251714Y-78287619D01*
X108299333Y-78240000D01*
X108394571Y-78192381D01*
X108632667Y-78192381D01*
X108775524Y-78240000D01*
X109727905Y-79192381D02*
X109156476Y-79192381D01*
X109442190Y-79192381D02*
X109442190Y-78192381D01*
X109346952Y-78335238D01*
X109251714Y-78430476D01*
X109156476Y-78478095D01*
X97404762Y-92933333D02*
X97452381Y-92790476D01*
X97452381Y-92552380D01*
X97404762Y-92457142D01*
X97357143Y-92409523D01*
X97261905Y-92361904D01*
X97166667Y-92361904D01*
X97071429Y-92409523D01*
X97023810Y-92457142D01*
X96976190Y-92552380D01*
X96928571Y-92742857D01*
X96880952Y-92838095D01*
X96833333Y-92885714D01*
X96738095Y-92933333D01*
X96642857Y-92933333D01*
X96547619Y-92885714D01*
X96500000Y-92838095D01*
X96452381Y-92742857D01*
X96452381Y-92504761D01*
X96500000Y-92361904D01*
X96452381Y-92028571D02*
X97452381Y-91790476D01*
X96738095Y-91599999D01*
X97452381Y-91409523D01*
X96452381Y-91171428D01*
X97452381Y-90266666D02*
X97452381Y-90838095D01*
X97452381Y-90552381D02*
X96452381Y-90552381D01*
X96595238Y-90647619D01*
X96690476Y-90742857D01*
X96738095Y-90838095D01*
X122923809Y-111876190D02*
X122923809Y-112352381D01*
X122590476Y-111352381D02*
X122923809Y-111876190D01*
X123257143Y-111352381D01*
X123542857Y-111447619D02*
X123590476Y-111400000D01*
X123685714Y-111352381D01*
X123923810Y-111352381D01*
X124019048Y-111400000D01*
X124066667Y-111447619D01*
X124114286Y-111542857D01*
X124114286Y-111638095D01*
X124066667Y-111780952D01*
X123495238Y-112352381D01*
X124114286Y-112352381D01*
X106073333Y-111096667D02*
X106549524Y-111096667D01*
X105978095Y-111382381D02*
X106311428Y-110382381D01*
X106644762Y-111382381D01*
X107311429Y-110858571D02*
X107454286Y-110906190D01*
X107501905Y-110953810D01*
X107549524Y-111049048D01*
X107549524Y-111191905D01*
X107501905Y-111287143D01*
X107454286Y-111334762D01*
X107359048Y-111382381D01*
X106978095Y-111382381D01*
X106978095Y-110382381D01*
X107311429Y-110382381D01*
X107406667Y-110430000D01*
X107454286Y-110477619D01*
X107501905Y-110572857D01*
X107501905Y-110668095D01*
X107454286Y-110763333D01*
X107406667Y-110810952D01*
X107311429Y-110858571D01*
X106978095Y-110858571D01*
X107930476Y-111334762D02*
X108073333Y-111382381D01*
X108311429Y-111382381D01*
X108406667Y-111334762D01*
X108454286Y-111287143D01*
X108501905Y-111191905D01*
X108501905Y-111096667D01*
X108454286Y-111001429D01*
X108406667Y-110953810D01*
X108311429Y-110906190D01*
X108120952Y-110858571D01*
X108025714Y-110810952D01*
X107978095Y-110763333D01*
X107930476Y-110668095D01*
X107930476Y-110572857D01*
X107978095Y-110477619D01*
X108025714Y-110430000D01*
X108120952Y-110382381D01*
X108359048Y-110382381D01*
X108501905Y-110430000D01*
X108882857Y-110477619D02*
X108930476Y-110430000D01*
X109025714Y-110382381D01*
X109263810Y-110382381D01*
X109359048Y-110430000D01*
X109406667Y-110477619D01*
X109454286Y-110572857D01*
X109454286Y-110668095D01*
X109406667Y-110810952D01*
X108835238Y-111382381D01*
X109454286Y-111382381D01*
X110359048Y-110382381D02*
X109882857Y-110382381D01*
X109835238Y-110858571D01*
X109882857Y-110810952D01*
X109978095Y-110763333D01*
X110216191Y-110763333D01*
X110311429Y-110810952D01*
X110359048Y-110858571D01*
X110406667Y-110953810D01*
X110406667Y-111191905D01*
X110359048Y-111287143D01*
X110311429Y-111334762D01*
X110216191Y-111382381D01*
X109978095Y-111382381D01*
X109882857Y-111334762D01*
X109835238Y-111287143D01*
X84285715Y-67404381D02*
X83714286Y-67404381D01*
X84000000Y-67404381D02*
X84000000Y-66404381D01*
X83904762Y-66547238D01*
X83809524Y-66642476D01*
X83714286Y-66690095D01*
X84714286Y-67404381D02*
X84714286Y-66404381D01*
X84714286Y-66880571D02*
X85285715Y-66880571D01*
X85285715Y-67404381D02*
X85285715Y-66404381D01*
X86285715Y-67404381D02*
X85714286Y-67404381D01*
X86000000Y-67404381D02*
X86000000Y-66404381D01*
X85904762Y-66547238D01*
X85809524Y-66642476D01*
X85714286Y-66690095D01*
X132258286Y-78028571D02*
X132401143Y-78076190D01*
X132448762Y-78123810D01*
X132496381Y-78219048D01*
X132496381Y-78361905D01*
X132448762Y-78457143D01*
X132401143Y-78504762D01*
X132305905Y-78552381D01*
X131924952Y-78552381D01*
X131924952Y-77552381D01*
X132258286Y-77552381D01*
X132353524Y-77600000D01*
X132401143Y-77647619D01*
X132448762Y-77742857D01*
X132448762Y-77838095D01*
X132401143Y-77933333D01*
X132353524Y-77980952D01*
X132258286Y-78028571D01*
X131924952Y-78028571D01*
X132782095Y-77552381D02*
X133353524Y-77552381D01*
X133067809Y-78552381D02*
X133067809Y-77552381D01*
X134210667Y-78552381D02*
X133639238Y-78552381D01*
X133924952Y-78552381D02*
X133924952Y-77552381D01*
X133829714Y-77695238D01*
X133734476Y-77790476D01*
X133639238Y-77838095D01*
X140604762Y-113508333D02*
X140652381Y-113365476D01*
X140652381Y-113127380D01*
X140604762Y-113032142D01*
X140557143Y-112984523D01*
X140461905Y-112936904D01*
X140366667Y-112936904D01*
X140271429Y-112984523D01*
X140223810Y-113032142D01*
X140176190Y-113127380D01*
X140128571Y-113317857D01*
X140080952Y-113413095D01*
X140033333Y-113460714D01*
X139938095Y-113508333D01*
X139842857Y-113508333D01*
X139747619Y-113460714D01*
X139700000Y-113413095D01*
X139652381Y-113317857D01*
X139652381Y-113079761D01*
X139700000Y-112936904D01*
X139652381Y-112603571D02*
X140652381Y-112365476D01*
X139938095Y-112174999D01*
X140652381Y-111984523D01*
X139652381Y-111746428D01*
X139747619Y-111413095D02*
X139700000Y-111365476D01*
X139652381Y-111270238D01*
X139652381Y-111032142D01*
X139700000Y-110936904D01*
X139747619Y-110889285D01*
X139842857Y-110841666D01*
X139938095Y-110841666D01*
X140080952Y-110889285D01*
X140652381Y-111460714D01*
X140652381Y-110841666D01*
M02*
